{"title":"The Witch 2016 HDTS XviD-VAiN","uid":14021635,"size":1324245928,"categoryP":"video","categoryS":"movies","magnet":"?xt=urn:btih:43c8e7da4881598d2a2cf8cfda2db8186bfe8b7a&amp;dn=The+Witch+2016+HDTS+XviD-VAiN+++&amp;tr=udp%3A%2F%2Ftracker.leechers-paradise.org%3A6969&amp;tr=udp%3A%2F%2Fzer0day.ch%3A1337&amp;tr=udp%3A%2F%2Fopen.demonii.com%3A1337&amp;tr=udp%3A%2F%2Ftracker.coppersurfer.tk%3A6969&amp;tr=udp%3A%2F%2Fexodus.desync.com%3A6969","seeders":1,"leechers":3,"uploader":"makintos13","files":3,"time":1458872527,"description":"The Witch 2016 HDTS XviD-VAiN   \r\n\r\nScreens:\r\n \nhttp://imgmak.com/KiA\r\n \nhttp://imgmak.com/KiD\r\n \nhttp://imgmak.com/Kif\r\n \nhttp://imgmak.com/KiE\r\n \nhttp://imgmak.com/Kih\r\n\r\n\r\n::::::::::::::\r\n\r\nP R E S E N T S . . . .\r\n\r\nThe.Witch.2016.HDTS.XviD-VAiN\r\n\r\niMDB........: http://www.imdb.com/title/tt4263482/\r\n\r\n\r\n\r\nT E C H N i C A L . i N F O . . .\r\n\r\nBasic Information\r\nFormat                                   : AVI\r\nFormat/Info                              : Audio Video Interleave\r\nFile size                                : 1.22 GiB\r\nDuration                                 : 1h 23mn\r\nOverall bit rate                         : 2 081 Kbps\r\nWriting application                      : VirtualDubMod 1.5.10.2 (build 2540/release)\r\nWriting library                          : VirtualDubMod build 2540/release\r\n\r\nVideo\r\nID                                       : 0\r\nFormat                                   : MPEG-4 Visual\r\nFormat profile                           : Advanced   \r\nFormat settings, BVOP                    : 2\r\nFormat settings, QPel                    : No\r\nFormat settings, GMC                     : No warppoints\r\nFormat settings, Matrix                  : Default (H.263)\r\nMuxing mode                              : Packed bitstream\r\nCodec ID                                 : XVID\r\nCodec ID/Hint                            : XviD\r\nDuration                                 : 1h 23mn\r\nBit rate                                 : 1 878 Kbps\r\nWidth                                    : 720 pixels\r\nHeight                                   : 400 pixels\r\nDisplay aspect ratio                     : 16:9\r\nFrame rate                               : 29.970 (30000/1001) fps\r\nColor space                              : YUV\r\nChroma subsampling                       : 4:2:0\r\nBit depth                                : 8 bits\r\nScan type                                : Progressive\r\nCompression mode                         : Lossy\r\nBits/(Pixel*Frame)                       : 0.218\r\nStream size                              : 1.10 GiB (90%)\r\nWriting library                          : XviD 64\r\n\r\nAudio\r\nID                                       : 1\r\nFormat                                   : AC-3\r\nFormat/Info                              : Audio Coding 3\r\nMode extension                           : CM (complete main)\r\nFormat settings, Endianness              : Big\r\nCodec ID                                 : 2000\r\nDuration                                 : 1h 23mn\r\nBit rate mode                            : Constant\r\nBit rate                                 : 192 Kbps\r\nChannel(s)                               : 2 channels\r\nChannel positions                        : Front: L R\r\nSampling rate                            : 48.0 KHz\r\nFrame rate                               : 31.250 fps (1536 spf)\r\nCompression mode                         : Lossy\r\nStream size                              : 115 MiB (9%)\r\nAlignment                                : Split accross interleaves\r\nInterleave, duration                     : 33 ms (1.00 video frame)\r\nInterleave, preload duration             : 500 ms\r\n\r\n\r\n\r\nE N C O D E R S . N O T E S . . .      \r\n\r\nSOURCE......: Cam &amp; LiNE neither are ours but someone elses....thanks to those the cammed and capped this for all us to use.\r\n............:\r\nSAMPLE......:\r\nADDED NOTE..: encoded using filters same as everyone else. muxed audio over Boom... release","torrent":{"xt":"urn:btih:43c8e7da4881598d2a2cf8cfda2db8186bfe8b7a","amp;dn":"The+Witch+2016+HDTS+XviD-VAiN+++","amp;tr":["udp%3A%2F%2Ftracker.leechers-paradise.org%3A6969","udp%3A%2F%2Fzer0day.ch%3A1337","udp%3A%2F%2Fopen.demonii.com%3A1337","udp%3A%2F%2Ftracker.coppersurfer.tk%3A6969","udp%3A%2F%2Fexodus.desync.com%3A6969"],"infoHash":"43c8e7da4881598d2a2cf8cfda2db8186bfe8b7a","infoHashBuffer":{"type":"Buffer","data":[67,200,231,218,72,129,89,141,42,44,248,207,218,45,184,24,107,254,139,122]},"announce":[],"urlList":[]}}